<svg xmlns="http://www.w3.org/2000/svg" viewBox="0 0 1600 520" role="img" aria-labelledby="title desc">
  <title id="title">暮色几何风景</title>
  <desc id="desc">深蓝、玫瑰与暖橙色构成的抽象横幅</desc>
  <defs>
    <linearGradient id="sky" x1="0" y1="0" x2="1" y2="1">
      <stop offset="0" stop-color="#202b3a"/><stop offset=".48" stop-color="#66536f"/><stop offset="1" stop-color="#d28d79"/>
    </linearGradient>
    <linearGradient id="shade" x1="0" y1="1" x2="0" y2="0"><stop stop-color="#12141d" stop-opacity=".7"/><stop offset=".72" stop-opacity="0"/></linearGradient>
  </defs>
  <rect width="1600" height="520" fill="url(#sky)"/>
  <circle cx="1260" cy="92" r="205" fill="#f6c9aa" opacity=".28"/>
  <path d="M0 390 260 205l185 137 260-226 210 210 244-140 441 225v109H0Z" fill="#202331" opacity=".48"/>
  <path d="M0 430 335 292l270 130 288-98 222 96 246-128 239 108v120H0Z" fill="#171a24" opacity=".65"/>
  <g fill="none" stroke="#f7d9c7" stroke-opacity=".28">
    <path d="M1040-40 850 560M1155-40 965 560M1270-40l-190 600M1385-40l-190 600"/>
    <path d="M760 92h720M720 180h720M690 268h720"/>
  </g>
  <rect width="1600" height="520" fill="url(#shade)"/>
</svg>
